<svg width="57" height="56" viewBox="0 0 57 56" fill="none" xmlns="http://www.w3.org/2000/svg">
<g filter="url(#filter0_d_46_3)">
<path d="M28.5569 1C16.1007 1 6 11.0989 6 23.5569C6 33.5233 12.4632 41.9786 21.4258 44.9613C22.5531 45.17 22.9671 44.4719 22.9671 43.8761C22.9671 43.3383 22.946 41.5612 22.9365 39.6764C16.661 41.0409 15.3368 37.015 15.3368 37.015C14.3107 34.4077 12.8323 33.7146 12.8323 33.7146C10.7858 32.3145 12.9865 32.3431 12.9865 32.3431C15.2517 32.5024 16.4444 34.6677 16.4444 34.6677C18.4562 38.1163 21.7213 37.1192 23.0085 36.543C23.2109 35.0849 23.7956 34.09 24.4406 33.5267C19.4305 32.9561 14.1635 31.022 14.1635 22.3789C14.1635 19.9163 15.0447 17.9039 16.4878 16.3243C16.2535 15.7561 15.4815 13.4619 16.7062 10.3548C16.7062 10.3548 18.6004 9.74855 22.911 12.667C24.7102 12.1671 26.6399 11.9166 28.5569 11.9081C30.4739 11.9166 32.4051 12.1671 34.2078 12.667C38.5132 9.74855 40.4048 10.3548 40.4048 10.3548C41.6325 13.4619 40.8601 15.7561 40.6259 16.3243C42.0721 17.9039 42.9473 19.9161 42.9473 22.3789C42.9473 31.0425 37.6704 32.9503 32.6476 33.5086C33.4566 34.2087 34.1775 35.5815 34.1775 37.6858C34.1775 40.7039 34.1513 43.1331 34.1513 43.8761C34.1513 44.4763 34.5573 45.1797 35.7009 44.9582C44.6586 41.9722 51.1136 33.52 51.1136 23.5569C51.1136 11.0989 41.0144 1 28.5569 1Z" fill="#292D32"/>
<path d="M14.4484 33.133C14.3989 33.245 14.2223 33.2786 14.0618 33.2018C13.8982 33.1282 13.8062 32.9754 13.8593 32.8629C13.9079 32.7475 14.0845 32.7153 14.2478 32.7928C14.4118 32.8662 14.5052 33.0205 14.4484 33.133ZM15.558 34.123C15.4504 34.2228 15.2401 34.1764 15.0973 34.0188C14.9498 33.8615 14.9222 33.6513 15.0313 33.55C15.1422 33.4504 15.3462 33.4969 15.4941 33.6543C15.6417 33.8134 15.6703 34.0223 15.5578 34.1232M16.3192 35.3897C16.1809 35.4857 15.9548 35.3957 15.8152 35.1951C15.677 34.9946 15.677 34.754 15.8182 34.6576C15.9583 34.5612 16.1809 34.6479 16.3224 34.8469C16.4604 35.0509 16.4604 35.2915 16.319 35.3898M17.6064 36.8568C17.4828 36.993 17.2195 36.9566 17.0267 36.7704C16.8296 36.5886 16.7746 36.3305 16.8986 36.1941C17.0237 36.0575 17.2885 36.0959 17.4828 36.2804C17.6786 36.4619 17.7382 36.722 17.6064 36.8568ZM19.2701 37.3521C19.2158 37.5287 18.9621 37.609 18.7066 37.534C18.4515 37.4567 18.2845 37.2497 18.336 37.0712C18.3891 36.8934 18.6438 36.8097 18.9012 36.89C19.156 36.967 19.3232 37.1724 19.2701 37.3521ZM21.1637 37.5621C21.1701 37.7482 20.9534 37.9025 20.6852 37.9059C20.4154 37.9117 20.1973 37.7611 20.1944 37.5782C20.1944 37.3903 20.4062 37.2375 20.6758 37.2331C20.944 37.2278 21.1637 37.3772 21.1637 37.5621ZM23.0238 37.4908C23.056 37.6723 22.8695 37.8588 22.6032 37.9083C22.3414 37.9561 22.099 37.8441 22.0656 37.6642C22.0331 37.4781 22.2231 37.2918 22.4844 37.2435C22.7511 37.1971 22.9898 37.3063 23.0238 37.4908Z" fill="#292D32"/>
</g>
<defs>
<filter id="filter0_d_46_3" x="0.9" y="0.9" width="55.3135" height="54.2" filterUnits="userSpaceOnUse" color-interpolation-filters="sRGB">
<feFlood flood-opacity="0" result="BackgroundImageFix"/>
<feColorMatrix in="SourceAlpha" type="matrix" values="0 0 0 0 0 0 0 0 0 0 0 0 0 0 0 0 0 0 127 0" result="hardAlpha"/>
<feOffset dy="5"/>
<feGaussianBlur stdDeviation="2.55"/>
<feComposite in2="hardAlpha" operator="out"/>
<feColorMatrix type="matrix" values="0 0 0 0 0 0 0 0 0 0 0 0 0 0 0 0 0 0 0.32 0"/>
<feBlend mode="normal" in2="BackgroundImageFix" result="effect1_dropShadow_46_3"/>
<feBlend mode="normal" in="SourceGraphic" in2="effect1_dropShadow_46_3" result="shape"/>
</filter>
</defs>
</svg>
