<svg width="52" height="53" viewBox="0 0 52 53" fill="none" xmlns="http://www.w3.org/2000/svg">
<g filter="url(#filter0_d_43_32)">
<path d="M35.2336 0H16.7884C8.77638 0 4 4.774 4 12.782V31.196C4 39.226 8.77638 44 16.7884 44H35.2116C43.2235 44 47.9999 39.226 47.9999 31.218V12.782C48.0219 4.774 43.2456 0 35.2336 0ZM26.011 30.536C21.3006 30.536 17.4707 26.708 17.4707 22C17.4707 17.292 21.3006 13.464 26.011 13.464C30.7213 13.464 34.5512 17.292 34.5512 22C34.5512 26.708 30.7213 30.536 26.011 30.536ZM39.0415 10.736C38.9314 11 38.7773 11.242 38.5792 11.462C38.3591 11.66 38.117 11.814 37.8529 11.924C37.5887 12.034 37.3026 12.1 37.0165 12.1C36.4222 12.1 35.8719 11.88 35.4537 11.462C35.2556 11.242 35.1015 11 34.9914 10.736C34.8814 10.472 34.8154 10.186 34.8154 9.9C34.8154 9.614 34.8814 9.328 34.9914 9.064C35.1015 8.778 35.2556 8.558 35.4537 8.338C35.9599 7.832 36.7303 7.59 37.4347 7.744C37.5887 7.766 37.7208 7.81 37.8529 7.876C37.9849 7.92 38.117 7.986 38.2491 8.074C38.3591 8.14 38.4692 8.25 38.5792 8.338C38.7773 8.558 38.9314 8.778 39.0415 9.064C39.1515 9.328 39.2175 9.614 39.2175 9.9C39.2175 10.186 39.1515 10.472 39.0415 10.736Z" fill="#292D32"/>
</g>
<defs>
<filter id="filter0_d_43_32" x="0" y="0" width="52" height="53" filterUnits="userSpaceOnUse" color-interpolation-filters="sRGB">
<feFlood flood-opacity="0" result="BackgroundImageFix"/>
<feColorMatrix in="SourceAlpha" type="matrix" values="0 0 0 0 0 0 0 0 0 0 0 0 0 0 0 0 0 0 127 0" result="hardAlpha"/>
<feOffset dy="5"/>
<feGaussianBlur stdDeviation="2"/>
<feComposite in2="hardAlpha" operator="out"/>
<feColorMatrix type="matrix" values="0 0 0 0 0 0 0 0 0 0 0 0 0 0 0 0 0 0 0.32 0"/>
<feBlend mode="normal" in2="BackgroundImageFix" result="effect1_dropShadow_43_32"/>
<feBlend mode="normal" in="SourceGraphic" in2="effect1_dropShadow_43_32" result="shape"/>
</filter>
</defs>
</svg>
